<svg xmlns="http://www.w3.org/2000/svg" viewBox="0 0 1200 675" role="img" aria-labelledby="sports-title sports-desc">
  <title id="sports-title">Sporting complex booking and fitness concept</title>
  <desc id="sports-desc">Concept cover based on verified project features</desc>
  <defs>
    <linearGradient id="sports-bg" x1="0" y1="0" x2="1" y2="1"><stop stop-color="#080a13"/><stop offset="1" stop-color="#111329"/></linearGradient>
    <linearGradient id="sports-accent" x1="0" y1="0" x2="1" y2="1"><stop stop-color="#f59e0b"/><stop offset="1" stop-color="#4ade80"/></linearGradient>
    <radialGradient id="sports-glow"><stop stop-color="#f59e0b" stop-opacity=".32"/><stop offset="1" stop-color="#f59e0b" stop-opacity="0"/></radialGradient>
    <filter id="sports-shadow" x="-20%" y="-20%" width="140%" height="150%"><feDropShadow dx="0" dy="18" stdDeviation="22" flood-color="#000" flood-opacity=".42"/></filter>
    <pattern id="sports-grid" width="34" height="34" patternUnits="userSpaceOnUse"><path d="M34 0H0V34" fill="none" stroke="#fff" stroke-opacity=".035"/></pattern>
    <clipPath id="sports-clip"><rect x="62" y="42" width="1076" height="591" rx="30"/></clipPath>
  </defs>
  <rect width="1200" height="675" fill="url(#sports-bg)"/>
  <circle cx="1035" cy="96" r="310" fill="url(#sports-glow)"/>
  <circle cx="92" cy="640" r="250" fill="url(#sports-glow)" opacity=".5"/>
  <rect width="1200" height="675" fill="url(#sports-grid)"/>
  <g filter="url(#sports-shadow)"><rect x="62" y="42" width="1076" height="591" rx="30" fill="#0d101d" stroke="#f59e0b" stroke-opacity=".38" stroke-width="2"/></g>
  <g clip-path="url(#sports-clip)">
    <rect x="62" y="42" width="1076" height="58" fill="#151929"/>
    <circle cx="96" cy="71" r="7" fill="#ff6b6b"/><circle cx="120" cy="71" r="7" fill="#ffd166"/><circle cx="144" cy="71" r="7" fill="#52d273"/>
    <rect x="174" y="60" width="250" height="23" rx="11.5" fill="#22273a"/>
    <circle cx="1096" cy="71" r="15" fill="#f59e0b" fill-opacity=".16"/><path d="M1089 71h14M1096 64v14" stroke="#f59e0b" stroke-width="2" stroke-linecap="round"/>
    
    <text x="96" y="150" fill="#f59e0b" font-family="Inter,Segoe UI,sans-serif" font-size="14" font-weight="800" text-anchor="start">SPORTING COMPLEX</text><text x="96" y="188" fill="#fffaf0" font-family="Inter,Segoe UI,sans-serif" font-size="30" font-weight="800" text-anchor="start">Pick a sport. Build your routine.</text>
    <g transform="translate(104 226)"><rect width="478" height="310" rx="24" fill="#15382b"/><path d="M22 155h434M239 20v270" stroke="#fff" stroke-opacity=".45" stroke-width="3"/><circle cx="239" cy="155" r="62" fill="none" stroke="#fff" stroke-opacity=".45" stroke-width="3"/><rect x="22" y="70" width="55" height="170" fill="none" stroke="#fff" stroke-opacity=".45" stroke-width="3"/><rect x="401" y="70" width="55" height="170" fill="none" stroke="#fff" stroke-opacity=".45" stroke-width="3"/><circle cx="284" cy="175" r="35" fill="#f8fafc"/><path d="M284 142l31 23-12 37h-38l-12-37Z" fill="#172033"/><path d="M264 202l-22 24M304 202l22 24M253 165l-30-9M315 165l30-9" stroke="#172033" stroke-width="9"/></g>
    <rect x="620" y="226" width="484" height="310" rx="20" fill="#151a2a"/><text x="648" y="264" fill="#9ba4bd" font-family="Inter,Segoe UI,sans-serif" font-size="13" font-weight="800" text-anchor="start">ACTIVITY PLAN</text>
    <rect x="648" y="288" width="428" height="54" rx="12" fill="#f59e0b18"/><circle cx="672" cy="315" r="11" fill="#f59e0b" fill-opacity=".3"/><text x="696" y="320" fill="#edf0f7" font-family="Inter,Segoe UI,sans-serif" font-size="15" font-weight="750" text-anchor="start">Football</text><text x="1050" y="320" fill="#f59e0b" font-family="Inter,Segoe UI,sans-serif" font-size="12" font-weight="800" text-anchor="end">MON / WED</text><rect x="648" y="358" width="428" height="54" rx="12" fill="#1c2235"/><circle cx="672" cy="315" r="11" fill="#4ade80" fill-opacity=".3"/><text x="696" y="390" fill="#edf0f7" font-family="Inter,Segoe UI,sans-serif" font-size="15" font-weight="750" text-anchor="start">Fitness</text><text x="1050" y="390" fill="#9ba4bd" font-family="Inter,Segoe UI,sans-serif" font-size="12" font-weight="800" text-anchor="end">TUE / THU</text><rect x="648" y="428" width="428" height="54" rx="12" fill="#1c2235"/><circle cx="672" cy="315" r="11" fill="#60a5fa" fill-opacity=".3"/><text x="696" y="460" fill="#edf0f7" font-family="Inter,Segoe UI,sans-serif" font-size="15" font-weight="750" text-anchor="start">Equipment</text><text x="1050" y="460" fill="#9ba4bd" font-family="Inter,Segoe UI,sans-serif" font-size="12" font-weight="800" text-anchor="end">AVAILABLE</text>
    <rect x="648" y="500" width="428" height="16" rx="8" fill="#272e42"/><rect x="648" y="500" width="316" height="16" rx="8" fill="#f59e0b"/>
  </g>
  <g transform="translate(84 604)"><rect width="178" height="24" rx="12" fill="#f59e0b" fill-opacity=".12" stroke="#f59e0b" stroke-opacity=".28"/><circle cx="14" cy="12" r="4" fill="#f59e0b"/><text x="26" y="16" fill="#cdd2e5" font-family="Inter,Segoe UI,sans-serif" font-size="11" font-weight="700" letter-spacing="1.5">PROJECT VISUAL</text></g>
</svg>