<svg xmlns="http://www.w3.org/2000/svg" viewBox="0 0 1200 675" role="img" aria-labelledby="trolleyhub-title trolleyhub-desc">
  <title id="trolleyhub-title">TrolleyHub requirements and architecture concept</title>
  <desc id="trolleyhub-desc">Concept cover based on verified project features</desc>
  <defs>
    <linearGradient id="trolleyhub-bg" x1="0" y1="0" x2="1" y2="1"><stop stop-color="#080a13"/><stop offset="1" stop-color="#111329"/></linearGradient>
    <linearGradient id="trolleyhub-accent" x1="0" y1="0" x2="1" y2="1"><stop stop-color="#9b7ff2"/><stop offset="1" stop-color="#6d5ce8"/></linearGradient>
    <radialGradient id="trolleyhub-glow"><stop stop-color="#9b7ff2" stop-opacity=".32"/><stop offset="1" stop-color="#9b7ff2" stop-opacity="0"/></radialGradient>
    <filter id="trolleyhub-shadow" x="-20%" y="-20%" width="140%" height="150%"><feDropShadow dx="0" dy="18" stdDeviation="22" flood-color="#000" flood-opacity=".42"/></filter>
    <pattern id="trolleyhub-grid" width="34" height="34" patternUnits="userSpaceOnUse"><path d="M34 0H0V34" fill="none" stroke="#fff" stroke-opacity=".035"/></pattern>
    <clipPath id="trolleyhub-clip"><rect x="62" y="42" width="1076" height="591" rx="30"/></clipPath>
  </defs>
  <rect width="1200" height="675" fill="url(#trolleyhub-bg)"/>
  <circle cx="1035" cy="96" r="310" fill="url(#trolleyhub-glow)"/>
  <circle cx="92" cy="640" r="250" fill="url(#trolleyhub-glow)" opacity=".5"/>
  <rect width="1200" height="675" fill="url(#trolleyhub-grid)"/>
  <g filter="url(#trolleyhub-shadow)"><rect x="62" y="42" width="1076" height="591" rx="30" fill="#0d101d" stroke="#9b7ff2" stroke-opacity=".38" stroke-width="2"/></g>
  <g clip-path="url(#trolleyhub-clip)">
    <rect x="62" y="42" width="1076" height="58" fill="#151929"/>
    <circle cx="96" cy="71" r="7" fill="#ff6b6b"/><circle cx="120" cy="71" r="7" fill="#ffd166"/><circle cx="144" cy="71" r="7" fill="#52d273"/>
    <rect x="174" y="60" width="250" height="23" rx="11.5" fill="#22273a"/>
    <circle cx="1096" cy="71" r="15" fill="#9b7ff2" fill-opacity=".16"/><path d="M1089 71h14M1096 64v14" stroke="#9b7ff2" stroke-width="2" stroke-linecap="round"/>
    
    <text x="94" y="148" fill="#9ba4bd" font-family="Inter,Segoe UI,sans-serif" font-size="14" font-weight="800" text-anchor="start">REQUIREMENTS MAP</text>
    <rect x="94" y="176" width="310" height="380" rx="22" fill="#151929"/><text x="122" y="216" fill="#aeb5ca" font-family="Inter,Segoe UI,sans-serif" font-size="13" font-weight="800" text-anchor="start">SYSTEM SCOPE</text>
    <g><circle cx="132" cy="260" r="9" fill="#9b7ff2" fill-opacity=".18"/><path d="M128 260l3 3 6-8" fill="none" stroke="#9b7ff2" stroke-width="2.4" stroke-linecap="round"/><text x="156" y="266" fill="#e4e7f0" font-family="Inter,Segoe UI,sans-serif" font-size="15" font-weight="650" text-anchor="start">Inventory &amp; IMEI</text></g><g><circle cx="132" cy="315" r="9" fill="#9b7ff2" fill-opacity=".18"/><path d="M128 315l3 3 6-8" fill="none" stroke="#9b7ff2" stroke-width="2.4" stroke-linecap="round"/><text x="156" y="321" fill="#e4e7f0" font-family="Inter,Segoe UI,sans-serif" font-size="15" font-weight="650" text-anchor="start">Purchases &amp; sales</text></g><g><circle cx="132" cy="370" r="9" fill="#9b7ff2" fill-opacity=".18"/><path d="M128 370l3 3 6-8" fill="none" stroke="#9b7ff2" stroke-width="2.4" stroke-linecap="round"/><text x="156" y="376" fill="#e4e7f0" font-family="Inter,Segoe UI,sans-serif" font-size="15" font-weight="650" text-anchor="start">Payments &amp; dues</text></g><g><circle cx="132" cy="425" r="9" fill="#9b7ff2" fill-opacity=".18"/><path d="M128 425l3 3 6-8" fill="none" stroke="#9b7ff2" stroke-width="2.4" stroke-linecap="round"/><text x="156" y="431" fill="#e4e7f0" font-family="Inter,Segoe UI,sans-serif" font-size="15" font-weight="650" text-anchor="start">Reports &amp; accounts</text></g><g><circle cx="132" cy="480" r="9" fill="#9b7ff2" fill-opacity=".18"/><path d="M128 480l3 3 6-8" fill="none" stroke="#9b7ff2" stroke-width="2.4" stroke-linecap="round"/><text x="156" y="486" fill="#e4e7f0" font-family="Inter,Segoe UI,sans-serif" font-size="15" font-weight="650" text-anchor="start">Role boundaries</text></g>
    <g stroke="#9b7ff2" stroke-opacity=".7" stroke-width="3" fill="none"><path d="M540 240H466V354H540"/><path d="M670 240H760V184H886"/><path d="M670 240H760V300H886"/><path d="M670 354H760V420H886"/></g>
    <rect x="540" y="196" width="130" height="88" rx="18" fill="#9b7ff222" stroke="#9b7ff288"/><text x="605" y="232" fill="#9b7ff2" font-family="Inter,Segoe UI,sans-serif" font-size="13" font-weight="800" text-anchor="middle">STAFF</text><text x="605" y="258" fill="#f5f3ff" font-family="Inter,Segoe UI,sans-serif" font-size="18" font-weight="800" text-anchor="middle">PORTAL</text>
    <rect x="540" y="310" width="130" height="88" rx="18" fill="#6d5ce822" stroke="#6d5ce888"/><text x="605" y="346" fill="#6d5ce8" font-family="Inter,Segoe UI,sans-serif" font-size="13" font-weight="800" text-anchor="middle">CUSTOMER</text><text x="605" y="372" fill="#f5f3ff" font-family="Inter,Segoe UI,sans-serif" font-size="18" font-weight="800" text-anchor="middle">PORTAL</text>
    <rect x="886" y="140" width="190" height="88" rx="18" fill="#171c2d" stroke="#9b7ff266"/><text x="981" y="192" fill="#eef0f7" font-family="Inter,Segoe UI,sans-serif" font-size="14" font-weight="800" text-anchor="middle">INVENTORY</text><rect x="886" y="256" width="190" height="88" rx="18" fill="#171c2d" stroke="#6d5ce866"/><text x="981" y="308" fill="#eef0f7" font-family="Inter,Segoe UI,sans-serif" font-size="14" font-weight="800" text-anchor="middle">TRANSACTIONS</text><rect x="886" y="376" width="190" height="88" rx="18" fill="#171c2d" stroke="#f7c65b66"/><text x="981" y="428" fill="#eef0f7" font-family="Inter,Segoe UI,sans-serif" font-size="14" font-weight="800" text-anchor="middle">REPORTING</text>
    <rect x="472" y="470" width="604" height="72" rx="18" fill="#141827"/><text x="502" y="500" fill="#8f98b2" font-family="Inter,Segoe UI,sans-serif" font-size="12" font-weight="800" text-anchor="start">TRACEABLE FLOW</text><text x="502" y="527" fill="#e7e9f1" font-family="Inter,Segoe UI,sans-serif" font-size="18" font-weight="750" text-anchor="start">Requirements • UML • ER model • QA</text>
  </g>
  <g transform="translate(84 604)"><rect width="178" height="24" rx="12" fill="#9b7ff2" fill-opacity=".12" stroke="#9b7ff2" stroke-opacity=".28"/><circle cx="14" cy="12" r="4" fill="#9b7ff2"/><text x="26" y="16" fill="#cdd2e5" font-family="Inter,Segoe UI,sans-serif" font-size="11" font-weight="700" letter-spacing="1.5">PROJECT VISUAL</text></g>
</svg>