<svg xmlns="http://www.w3.org/2000/svg" viewBox="0 0 1200 675" role="img" aria-labelledby="bookstore-title bookstore-desc">
  <title id="bookstore-title">Online bookstore catalog concept</title>
  <desc id="bookstore-desc">Concept cover based on verified project features</desc>
  <defs>
    <linearGradient id="bookstore-bg" x1="0" y1="0" x2="1" y2="1"><stop stop-color="#080a13"/><stop offset="1" stop-color="#111329"/></linearGradient>
    <linearGradient id="bookstore-accent" x1="0" y1="0" x2="1" y2="1"><stop stop-color="#a78bfa"/><stop offset="1" stop-color="#f59e0b"/></linearGradient>
    <radialGradient id="bookstore-glow"><stop stop-color="#a78bfa" stop-opacity=".32"/><stop offset="1" stop-color="#a78bfa" stop-opacity="0"/></radialGradient>
    <filter id="bookstore-shadow" x="-20%" y="-20%" width="140%" height="150%"><feDropShadow dx="0" dy="18" stdDeviation="22" flood-color="#000" flood-opacity=".42"/></filter>
    <pattern id="bookstore-grid" width="34" height="34" patternUnits="userSpaceOnUse"><path d="M34 0H0V34" fill="none" stroke="#fff" stroke-opacity=".035"/></pattern>
    <clipPath id="bookstore-clip"><rect x="62" y="42" width="1076" height="591" rx="30"/></clipPath>
  </defs>
  <rect width="1200" height="675" fill="url(#bookstore-bg)"/>
  <circle cx="1035" cy="96" r="310" fill="url(#bookstore-glow)"/>
  <circle cx="92" cy="640" r="250" fill="url(#bookstore-glow)" opacity=".5"/>
  <rect width="1200" height="675" fill="url(#bookstore-grid)"/>
  <g filter="url(#bookstore-shadow)"><rect x="62" y="42" width="1076" height="591" rx="30" fill="#0d101d" stroke="#a78bfa" stroke-opacity=".38" stroke-width="2"/></g>
  <g clip-path="url(#bookstore-clip)">
    <rect x="62" y="42" width="1076" height="58" fill="#151929"/>
    <circle cx="96" cy="71" r="7" fill="#ff6b6b"/><circle cx="120" cy="71" r="7" fill="#ffd166"/><circle cx="144" cy="71" r="7" fill="#52d273"/>
    <rect x="174" y="60" width="250" height="23" rx="11.5" fill="#22273a"/>
    <circle cx="1096" cy="71" r="15" fill="#a78bfa" fill-opacity=".16"/><path d="M1089 71h14M1096 64v14" stroke="#a78bfa" stroke-width="2" stroke-linecap="round"/>
    
    <text x="96" y="146" fill="#9ba4bd" font-family="Inter,Segoe UI,sans-serif" font-size="14" font-weight="800" text-anchor="start">CURATED LIBRARY</text><text x="96" y="181" fill="#f7f7fb" font-family="Inter,Segoe UI,sans-serif" font-size="28" font-weight="800" text-anchor="start">Find your next read</text>
    <g><rect x="96" y="220" width="146" height="236" rx="14" fill="#171c2d"/><rect x="114" y="238" width="110" height="148" rx="8" fill="#a78bfa" fill-opacity=".18" stroke="#a78bfa" stroke-opacity=".7"/><path d="M133 260h72M133 278h52M133 350h48" stroke="#a78bfa" stroke-width="7" stroke-linecap="round"/><rect x="114" y="406" width="80" height="9" rx="4.5" fill="#596179"/><rect x="114" y="425" width="52" height="8" rx="4" fill="#343b51"/><rect x="272" y="220" width="146" height="236" rx="14" fill="#171c2d"/><rect x="290" y="238" width="110" height="148" rx="8" fill="#f59e0b" fill-opacity=".18" stroke="#f59e0b" stroke-opacity=".7"/><path d="M309 260h72M309 278h52M309 350h48" stroke="#f59e0b" stroke-width="7" stroke-linecap="round"/><rect x="290" y="406" width="80" height="9" rx="4.5" fill="#596179"/><rect x="290" y="425" width="52" height="8" rx="4" fill="#343b51"/><rect x="448" y="220" width="146" height="236" rx="14" fill="#171c2d"/><rect x="466" y="238" width="110" height="148" rx="8" fill="#4fd1c5" fill-opacity=".18" stroke="#4fd1c5" stroke-opacity=".7"/><path d="M485 260h72M485 278h52M485 350h48" stroke="#4fd1c5" stroke-width="7" stroke-linecap="round"/><rect x="466" y="406" width="80" height="9" rx="4.5" fill="#596179"/><rect x="466" y="425" width="52" height="8" rx="4" fill="#343b51"/><rect x="624" y="220" width="146" height="236" rx="14" fill="#171c2d"/><rect x="642" y="238" width="110" height="148" rx="8" fill="#fb7185" fill-opacity=".18" stroke="#fb7185" stroke-opacity=".7"/><path d="M661 260h72M661 278h52M661 350h48" stroke="#fb7185" stroke-width="7" stroke-linecap="round"/><rect x="642" y="406" width="80" height="9" rx="4.5" fill="#596179"/><rect x="642" y="425" width="52" height="8" rx="4" fill="#343b51"/></g>
    <rect x="824" y="146" width="280" height="370" rx="20" fill="#151a2a"/><text x="852" y="186" fill="#9ba4bd" font-family="Inter,Segoe UI,sans-serif" font-size="13" font-weight="800" text-anchor="start">ORDER JOURNEY</text>
    <g><circle cx="870" cy="238" r="18" fill="#a78bfa" fill-opacity=".24" stroke="#a78bfa"/><path d="M870 256V294" stroke="#a78bfa" stroke-width="3"/><text x="906" y="244" fill="#eef0f7" font-family="Inter,Segoe UI,sans-serif" font-size="16" font-weight="700" text-anchor="start">Cart</text></g><g><circle cx="870" cy="312" r="18" fill="#a78bfa" fill-opacity=".24" stroke="#a78bfa"/><path d="M870 330V368" stroke="#a78bfa" stroke-width="3"/><text x="906" y="318" fill="#eef0f7" font-family="Inter,Segoe UI,sans-serif" font-size="16" font-weight="700" text-anchor="start">Confirmed</text></g><g><circle cx="870" cy="386" r="18" fill="#a78bfa" fill-opacity=".24" stroke="#a78bfa"/><path d="M870 404V442" stroke="#414960" stroke-width="3"/><text x="906" y="392" fill="#eef0f7" font-family="Inter,Segoe UI,sans-serif" font-size="16" font-weight="700" text-anchor="start">Shipped</text></g><g><circle cx="870" cy="460" r="18" fill="#2c3349" fill-opacity="1" stroke="#596179"/><path d="M870 478V516" stroke="#414960" stroke-width="3"/><text x="906" y="466" fill="#9da5bb" font-family="Inter,Segoe UI,sans-serif" font-size="16" font-weight="700" text-anchor="start">Delivered</text></g>
    <rect x="96" y="480" width="678" height="50" rx="12" fill="#a78bfa18"/><text x="120" y="512" fill="#a78bfa" font-family="Inter,Segoe UI,sans-serif" font-size="13" font-weight="800" text-anchor="start">SEARCH  /  CATEGORY  /  AUTHOR</text>
  </g>
  <g transform="translate(84 604)"><rect width="178" height="24" rx="12" fill="#a78bfa" fill-opacity=".12" stroke="#a78bfa" stroke-opacity=".28"/><circle cx="14" cy="12" r="4" fill="#a78bfa"/><text x="26" y="16" fill="#cdd2e5" font-family="Inter,Segoe UI,sans-serif" font-size="11" font-weight="700" letter-spacing="1.5">PROJECT VISUAL</text></g>
</svg>