<svg xmlns="http://www.w3.org/2000/svg" viewBox="0 0 1200 675" role="img" aria-labelledby="travel-title travel-desc">
  <title id="travel-title">Travel discovery and planning concept</title>
  <desc id="travel-desc">Concept cover based on verified project features</desc>
  <defs>
    <linearGradient id="travel-bg" x1="0" y1="0" x2="1" y2="1"><stop stop-color="#080a13"/><stop offset="1" stop-color="#111329"/></linearGradient>
    <linearGradient id="travel-accent" x1="0" y1="0" x2="1" y2="1"><stop stop-color="#22d3ee"/><stop offset="1" stop-color="#8b5cf6"/></linearGradient>
    <radialGradient id="travel-glow"><stop stop-color="#22d3ee" stop-opacity=".32"/><stop offset="1" stop-color="#22d3ee" stop-opacity="0"/></radialGradient>
    <filter id="travel-shadow" x="-20%" y="-20%" width="140%" height="150%"><feDropShadow dx="0" dy="18" stdDeviation="22" flood-color="#000" flood-opacity=".42"/></filter>
    <pattern id="travel-grid" width="34" height="34" patternUnits="userSpaceOnUse"><path d="M34 0H0V34" fill="none" stroke="#fff" stroke-opacity=".035"/></pattern>
    <clipPath id="travel-clip"><rect x="62" y="42" width="1076" height="591" rx="30"/></clipPath>
  </defs>
  <rect width="1200" height="675" fill="url(#travel-bg)"/>
  <circle cx="1035" cy="96" r="310" fill="url(#travel-glow)"/>
  <circle cx="92" cy="640" r="250" fill="url(#travel-glow)" opacity=".5"/>
  <rect width="1200" height="675" fill="url(#travel-grid)"/>
  <g filter="url(#travel-shadow)"><rect x="62" y="42" width="1076" height="591" rx="30" fill="#0d101d" stroke="#22d3ee" stroke-opacity=".38" stroke-width="2"/></g>
  <g clip-path="url(#travel-clip)">
    <rect x="62" y="42" width="1076" height="58" fill="#151929"/>
    <circle cx="96" cy="71" r="7" fill="#ff6b6b"/><circle cx="120" cy="71" r="7" fill="#ffd166"/><circle cx="144" cy="71" r="7" fill="#52d273"/>
    <rect x="174" y="60" width="250" height="23" rx="11.5" fill="#22273a"/>
    <circle cx="1096" cy="71" r="15" fill="#22d3ee" fill-opacity=".16"/><path d="M1089 71h14M1096 64v14" stroke="#22d3ee" stroke-width="2" stroke-linecap="round"/>
    
    <text x="96" y="150" fill="#22d3ee" font-family="Inter,Segoe UI,sans-serif" font-size="14" font-weight="800" text-anchor="start">DESTINATION EXPLORER</text><text x="96" y="188" fill="#f7fafc" font-family="Inter,Segoe UI,sans-serif" font-size="29" font-weight="800" text-anchor="start">Follow the route to somewhere new</text>
    <rect x="96" y="220" width="720" height="320" rx="22" fill="#111a28"/>
    <path d="M154 284l90-31 86 46 104-25 80 60 108-57 138 54-47 129-103 35-84-38-112 43-106-51-112 24Z" fill="#22d3ee" fill-opacity=".08" stroke="#22d3ee" stroke-opacity=".35" stroke-width="2"/>
    <path d="M188 430 C310 376 330 468 446 364 S640 280 742 335" fill="none" stroke="#8b5cf6" stroke-width="6" stroke-dasharray="10 13" stroke-linecap="round"/>
    <g><circle cx="188" cy="430" r="22" fill="#8b5cf6" fill-opacity=".18"/><path d="M188 440c-17-17-17-37 0-37s17 20 0 37Z" fill="#8b5cf6"/><circle cx="188" cy="414" r="5" fill="#101522"/></g><g><circle cx="446" cy="364" r="22" fill="#8b5cf6" fill-opacity=".18"/><path d="M446 374c-17-17-17-37 0-37s17 20 0 37Z" fill="#8b5cf6"/><circle cx="446" cy="348" r="5" fill="#101522"/></g><g><circle cx="742" cy="335" r="22" fill="#22d3ee" fill-opacity=".18"/><path d="M742 345c-17-17-17-37 0-37s17 20 0 37Z" fill="#22d3ee"/><circle cx="742" cy="319" r="5" fill="#101522"/></g>
    <rect x="850" y="220" width="254" height="320" rx="20" fill="#171c2d"/><text x="878" y="258" fill="#9ba4bd" font-family="Inter,Segoe UI,sans-serif" font-size="13" font-weight="800" text-anchor="start">TRIP PLAN</text>
    <text x="878" y="305" fill="#838da7" font-family="Inter,Segoe UI,sans-serif" font-size="12" font-weight="750" text-anchor="start">PLACE</text><text x="1074" y="305" fill="#edf0f7" font-family="Inter,Segoe UI,sans-serif" font-size="14" font-weight="800" text-anchor="end">COAST</text><path d="M878 320H1074" stroke="#fff" stroke-opacity=".07"/><text x="878" y="357" fill="#838da7" font-family="Inter,Segoe UI,sans-serif" font-size="12" font-weight="750" text-anchor="start">COST</text><text x="1074" y="357" fill="#edf0f7" font-family="Inter,Segoe UI,sans-serif" font-size="14" font-weight="800" text-anchor="end">MID</text><path d="M878 372H1074" stroke="#fff" stroke-opacity=".07"/><text x="878" y="409" fill="#838da7" font-family="Inter,Segoe UI,sans-serif" font-size="12" font-weight="750" text-anchor="start">DAYS</text><text x="1074" y="409" fill="#edf0f7" font-family="Inter,Segoe UI,sans-serif" font-size="14" font-weight="800" text-anchor="end">05</text><path d="M878 424H1074" stroke="#fff" stroke-opacity=".07"/><text x="878" y="461" fill="#838da7" font-family="Inter,Segoe UI,sans-serif" font-size="12" font-weight="750" text-anchor="start">SAVED</text><text x="1074" y="461" fill="#22d3ee" font-family="Inter,Segoe UI,sans-serif" font-size="14" font-weight="800" text-anchor="end">YES</text><path d="M878 476H1074" stroke="#fff" stroke-opacity=".07"/>
  </g>
  <g transform="translate(84 604)"><rect width="178" height="24" rx="12" fill="#22d3ee" fill-opacity=".12" stroke="#22d3ee" stroke-opacity=".28"/><circle cx="14" cy="12" r="4" fill="#22d3ee"/><text x="26" y="16" fill="#cdd2e5" font-family="Inter,Segoe UI,sans-serif" font-size="11" font-weight="700" letter-spacing="1.5">PROJECT VISUAL</text></g>
</svg>