<svg xmlns="http://www.w3.org/2000/svg" viewBox="0 0 1200 675" role="img" aria-labelledby="mobileshop-title mobileshop-desc">
  <title id="mobileshop-title">Online mobile shop storefront concept</title>
  <desc id="mobileshop-desc">Concept cover based on verified project features</desc>
  <defs>
    <linearGradient id="mobileshop-bg" x1="0" y1="0" x2="1" y2="1"><stop stop-color="#080a13"/><stop offset="1" stop-color="#111329"/></linearGradient>
    <linearGradient id="mobileshop-accent" x1="0" y1="0" x2="1" y2="1"><stop stop-color="#9b7ff2"/><stop offset="1" stop-color="#6d5ce8"/></linearGradient>
    <radialGradient id="mobileshop-glow"><stop stop-color="#9b7ff2" stop-opacity=".32"/><stop offset="1" stop-color="#9b7ff2" stop-opacity="0"/></radialGradient>
    <filter id="mobileshop-shadow" x="-20%" y="-20%" width="140%" height="150%"><feDropShadow dx="0" dy="18" stdDeviation="22" flood-color="#000" flood-opacity=".42"/></filter>
    <pattern id="mobileshop-grid" width="34" height="34" patternUnits="userSpaceOnUse"><path d="M34 0H0V34" fill="none" stroke="#fff" stroke-opacity=".035"/></pattern>
    <clipPath id="mobileshop-clip"><rect x="62" y="42" width="1076" height="591" rx="30"/></clipPath>
  </defs>
  <rect width="1200" height="675" fill="url(#mobileshop-bg)"/>
  <circle cx="1035" cy="96" r="310" fill="url(#mobileshop-glow)"/>
  <circle cx="92" cy="640" r="250" fill="url(#mobileshop-glow)" opacity=".5"/>
  <rect width="1200" height="675" fill="url(#mobileshop-grid)"/>
  <g filter="url(#mobileshop-shadow)"><rect x="62" y="42" width="1076" height="591" rx="30" fill="#0d101d" stroke="#9b7ff2" stroke-opacity=".38" stroke-width="2"/></g>
  <g clip-path="url(#mobileshop-clip)">
    <rect x="62" y="42" width="1076" height="58" fill="#151929"/>
    <circle cx="96" cy="71" r="7" fill="#ff6b6b"/><circle cx="120" cy="71" r="7" fill="#ffd166"/><circle cx="144" cy="71" r="7" fill="#52d273"/>
    <rect x="174" y="60" width="250" height="23" rx="11.5" fill="#22273a"/>
    <circle cx="1096" cy="71" r="15" fill="#9b7ff2" fill-opacity=".16"/><path d="M1089 71h14M1096 64v14" stroke="#9b7ff2" stroke-width="2" stroke-linecap="round"/>
    
    <rect x="94" y="130" width="1010" height="426" rx="22" fill="#121624"/><text x="124" y="170" fill="#9ba4bd" font-family="Inter,Segoe UI,sans-serif" font-size="14" font-weight="800" text-anchor="start">MOBILE CATALOG</text>
    <rect x="124" y="198" width="580" height="82" rx="18" fill="#151a2a"/>
    <rect x="124" y="198" width="580" height="82" rx="18" fill="#9b7ff2" fill-opacity=".13"/><text x="150" y="234" fill="#f5f3ff" font-family="Inter,Segoe UI,sans-serif" font-size="20" font-weight="800" text-anchor="start">Smartphones built for every day</text><text x="150" y="260" fill="#bbb4da" font-family="Inter,Segoe UI,sans-serif" font-size="13" font-weight="650" text-anchor="start">Browse • Compare • Order</text>
    <g><rect x="124" y="308" width="174" height="210" rx="16" fill="#191e30"/><rect x="174" y="330" width="74" height="116" rx="16" fill="#090c14" stroke="#9b7ff2" stroke-width="3"/><circle cx="211" cy="434" r="6" fill="none" stroke="#9b7ff2"/><rect x="142" y="470" width="88" height="10" rx="5" fill="#414963"/><rect x="142" y="489" width="62" height="8" rx="4" fill="#30374d"/><rect x="245" y="472" width="36" height="24" rx="8" fill="#9b7ff2" fill-opacity=".22"/><rect x="318" y="308" width="174" height="210" rx="16" fill="#191e30"/><rect x="368" y="330" width="74" height="116" rx="16" fill="#090c14" stroke="#6d5ce8" stroke-width="3"/><circle cx="405" cy="434" r="6" fill="none" stroke="#6d5ce8"/><rect x="336" y="470" width="88" height="10" rx="5" fill="#414963"/><rect x="336" y="489" width="62" height="8" rx="4" fill="#30374d"/><rect x="439" y="472" width="36" height="24" rx="8" fill="#6d5ce8" fill-opacity=".22"/><rect x="512" y="308" width="174" height="210" rx="16" fill="#191e30"/><rect x="562" y="330" width="74" height="116" rx="16" fill="#090c14" stroke="#68d4ff" stroke-width="3"/><circle cx="599" cy="434" r="6" fill="none" stroke="#68d4ff"/><rect x="530" y="470" width="88" height="10" rx="5" fill="#414963"/><rect x="530" y="489" width="62" height="8" rx="4" fill="#30374d"/><rect x="633" y="472" width="36" height="24" rx="8" fill="#68d4ff" fill-opacity=".22"/></g>
    <rect x="744" y="198" width="330" height="320" rx="18" fill="#171c2d"/><text x="770" y="236" fill="#9ba4bd" font-family="Inter,Segoe UI,sans-serif" font-size="13" font-weight="800" text-anchor="start">ORDER SUMMARY</text><text x="770" y="284" fill="#aeb6cd" font-family="Inter,Segoe UI,sans-serif" font-size="14" font-weight="650" text-anchor="start">Items</text><text x="1046" y="284" fill="#9b7ff2" font-family="Inter,Segoe UI,sans-serif" font-size="14" font-weight="800" text-anchor="end">03</text><path d="M770 302H1046" stroke="#fff" stroke-opacity=".08"/><text x="770" y="342" fill="#aeb6cd" font-family="Inter,Segoe UI,sans-serif" font-size="14" font-weight="650" text-anchor="start">Delivery</text><text x="1046" y="342" fill="#eef0f7" font-family="Inter,Segoe UI,sans-serif" font-size="14" font-weight="800" text-anchor="end">Ready</text><path d="M770 360H1046" stroke="#fff" stroke-opacity=".08"/><text x="770" y="400" fill="#aeb6cd" font-family="Inter,Segoe UI,sans-serif" font-size="14" font-weight="650" text-anchor="start">Payment</text><text x="1046" y="400" fill="#eef0f7" font-family="Inter,Segoe UI,sans-serif" font-size="14" font-weight="800" text-anchor="end">Secure</text><path d="M770 418H1046" stroke="#fff" stroke-opacity=".08"/><rect x="770" y="448" width="276" height="46" rx="12" fill="#9b7ff226"/><text x="908" y="477" fill="#9b7ff2" font-family="Inter,Segoe UI,sans-serif" font-size="14" font-weight="800" text-anchor="middle">CHECKOUT</text>
  </g>
  <g transform="translate(84 604)"><rect width="178" height="24" rx="12" fill="#9b7ff2" fill-opacity=".12" stroke="#9b7ff2" stroke-opacity=".28"/><circle cx="14" cy="12" r="4" fill="#9b7ff2"/><text x="26" y="16" fill="#cdd2e5" font-family="Inter,Segoe UI,sans-serif" font-size="11" font-weight="700" letter-spacing="1.5">PROJECT VISUAL</text></g>
</svg>
